<svg width="2051" height="549" viewBox="0 0 2051 549" fill="none" xmlns="http://www.w3.org/2000/svg">
  <g fill="currentColor">
    <path d="M1963.07 209.933L1962.29 286.324H2050.25V362.251H1962.29V446.436C1962.29 451.451 1973.24 461.945 1978.98 461.945H2050.25V537.101H1952.9C1951.08 537.101 1944.99 535.79 1942.73 535.327C1903.27 527.225 1877.37 495.665 1876.67 460.17V209.933H1963.07Z"/>
    <path d="M1833.05 385.539V536.741H1757.21V407.979C1757.21 368.258 1761.96 352.532 1713.46 352.532H1642.06V536.741C1642.06 536.741 1601.8 536.981 1566.93 537.101V472.66H1566.77V282.637H1736.84C1794.45 282.637 1833.05 317.678 1833.05 385.539Z"/>
    <path fill-rule="evenodd" clip-rule="evenodd" d="M1325.9 532.508L1325.91 532.517L1325.93 532.526C1345.8 543.302 1368.79 548.647 1394.84 548.647C1414.59 548.647 1432.74 544.961 1449.25 537.551L1449.27 537.542L1449.29 537.532C1465.72 529.819 1479.68 519.571 1491.12 506.779L1491.13 506.766L1491.15 506.753C1502.58 493.635 1510.67 478.976 1515.39 462.792L1516.41 459.302H1435.69L1434.91 460.676C1431.2 467.167 1425.93 472.607 1419.05 476.993C1412.69 480.92 1404.35 482.989 1393.85 482.989C1382.74 482.989 1373.2 480.615 1365.13 475.963C1357.38 471.307 1351.32 464.798 1346.94 456.368C1344.09 450.445 1342.23 443.872 1341.36 436.627H1521.04L1521.39 434.315C1522.06 429.952 1522.41 425.735 1522.41 421.669C1522.74 417.384 1522.91 413.563 1522.91 410.214C1522.91 385.462 1517.38 363.595 1506.26 344.703C1495.49 325.533 1480.5 310.384 1461.34 299.289C1442.11 288.157 1419.75 282.637 1394.34 282.637C1368.26 282.637 1345.23 288.493 1325.34 300.29C1305.51 312.059 1290.03 328.215 1278.94 348.712C1267.84 369.226 1262.32 392.546 1262.32 418.603C1262.32 444.013 1267.84 466.688 1278.96 486.553L1278.97 486.577L1278.98 486.601C1290.42 506.103 1306.07 521.416 1325.9 532.508ZM1441.75 388.242H1343.45C1344.58 383.721 1346.07 379.621 1347.91 375.934C1352.96 366.47 1359.53 359.48 1367.58 354.838C1375.69 350.158 1384.75 347.801 1394.84 347.801C1408.04 347.801 1418.87 351.866 1427.52 359.903L1427.56 359.937L1427.6 359.97C1435.86 367.09 1440.6 376.446 1441.75 388.242Z"/>
    <path d="M1096.33 545.92C1070.67 545.92 1047.97 540.328 1028.23 529.142C1008.82 517.956 993.526 502.659 982.34 483.248C971.484 463.838 966.055 441.632 966.055 416.629C966.055 390.968 971.484 368.432 982.34 349.022C993.526 329.283 1008.82 313.821 1028.23 302.635C1047.97 291.121 1070.67 285.363 1096.33 285.363C1128.9 285.363 1156.21 293.917 1178.25 311.024C1200.62 328.132 1214.77 351.983 1220.69 382.579H1142.23C1139.27 372.051 1133.67 363.827 1125.45 357.905C1117.22 351.983 1107.35 349.022 1095.84 349.022C1084.98 349.022 1075.44 351.819 1067.22 357.411C1059.32 362.675 1053.07 370.406 1048.47 380.605C1043.86 390.474 1041.56 402.153 1041.56 415.642C1041.56 425.84 1042.87 435.052 1045.51 443.277C1048.14 451.501 1051.76 458.575 1056.36 464.496C1061.3 470.418 1067.05 475.024 1073.63 478.314C1080.21 481.275 1087.62 482.755 1095.84 482.755C1103.74 482.755 1110.64 481.439 1116.57 478.807C1122.82 476.175 1128.08 472.392 1132.36 467.457C1136.96 462.522 1140.25 456.436 1142.23 449.198H1220.69C1214.77 478.807 1200.62 502.33 1178.25 519.766C1155.88 537.202 1128.57 545.92 1096.33 545.92Z"/>
    <path d="M919.706 385.539V536.741H843.867V407.979C843.867 368.258 848.613 352.532 800.114 352.532H728.712V536.741C728.712 536.741 688.455 536.981 653.586 537.101V472.66H653.428V282.637H823.492C881.104 282.637 919.706 317.678 919.706 385.539Z"/>
    <path d="M602.954 210.842V284.971H535.426L600.511 331.821C600.947 332.361 602.954 335.212 602.954 335.443V537.101H515.709V210.842H602.954Z"/>
    <path d="M318.904 436.689L268.551 537.412L0 0.223541H100.706L318.904 436.689Z"/>
    <path d="M542.771 0L353.816 381.851L303.462 281.129L446.913 0.820704L542.771 0Z"/>
  </g>
</svg>
